<svg width="35" height="47" viewBox="0 0 35 47" fill="none" xmlns="http://www.w3.org/2000/svg">
<path d="M29.706 32.1057C32.549 26.1483 34.2596 18.0177 34.2933 6.67326L34.2949 6.08739L33.8571 5.70448C29.5013 1.90138 23.4908 0 17.4984 0C11.5054 0 5.49615 1.90138 1.14007 5.70448L0.70166 6.08739L0.703594 6.67326C0.737543 18.0174 2.44822 26.1476 5.29085 32.1057C8.1865 38.1724 12.2377 41.9906 16.8896 44.6371L17.4984 44.9835L18.1072 44.6371C22.7595 41.9906 26.8107 38.1731 29.706 32.1057Z" fill="white"/>
<path d="M30.2126 33.8272C33.1739 27.7332 34.9615 18.8927 34.9977 7.28806L35 6.68902L34.5431 6.29789C34.461 6.2275 34.3786 6.15743 34.2948 6.08835L34.2932 6.67423C34.2596 18.0184 32.5486 26.1486 29.7053 32.1067C26.8106 38.1734 22.7598 41.9916 18.1072 44.6381L17.4984 44.9844L16.8896 44.6381C12.2377 41.9916 8.18645 38.174 5.2908 32.1067C2.44786 26.1493 0.7375 18.0187 0.703551 6.67423L0.701617 6.08835C0.619818 6.15677 0.538031 6.22585 0.456878 6.29559L0 6.68706L0.00228913 7.28608C0.0372076 18.8898 1.8232 27.7329 4.78416 33.8275C7.80008 40.0333 12.0194 43.9387 16.865 46.646L17.499 47L18.1327 46.646C22.9777 43.9384 27.198 40.033 30.2126 33.8272Z" fill="#9D9C9C"/>
<path d="M27.8404 4.37024C24.614 2.87282 20.9955 2.16721 17.4988 2.16721C13.7887 2.16721 9.94761 2.96164 6.58057 4.64953L6.84247 4.63703C13.6031 3.91431 20.9185 3.82614 27.8404 4.37024Z" fill="#FFCC00"/>
<path d="M6.72211 22.5222C14.0249 24.5367 21.3229 27.1151 28.1074 30.4817C30.0949 26.0976 31.123 21.1777 31.6556 16.3598C23.2948 17.4407 14.5199 19.3013 6.72211 22.5222Z" fill="#70B62C"/>
<path d="M32.1357 8.88681C22.3908 9.11675 12.5438 10.1076 2.98712 12.0748C3.14781 14.9117 3.44464 17.7529 3.94773 20.5491C12.6298 16.8151 22.5709 14.7913 31.9029 13.6932C32.0244 12.0942 32.0982 10.4905 32.1357 8.88681Z" fill="#0069B4"/>
<path d="M32.1623 7.08644C32.0876 7.02427 32.0113 6.96177 31.9353 6.90091C22.5038 6.02029 12.9422 5.93081 3.49 6.56603C3.26755 6.73511 3.04896 6.90848 2.83459 7.08711C2.84171 8.16642 2.86435 9.24606 2.90508 10.3247C12.5019 8.36741 22.3819 7.38054 32.1616 7.15257C32.1619 7.13053 32.1619 7.10848 32.1623 7.08644Z" fill="#EF7D00"/>
<path d="M27.0661 32.5801C20.007 29.0994 12.3861 26.4806 4.80359 24.4621C6.80655 32.1314 10.5066 38.3606 17.4994 42.4969C21.6573 40.0386 24.7705 36.8026 27.0661 32.5801Z" fill="#009640"/>
</svg>
